<svg width="15" height="16" viewBox="0 0 15 16" fill="none" xmlns="http://www.w3.org/2000/svg">
<path d="M13.585 1.90982H12.0982V1.19248C12.0982 1.06037 12.045 0.933669 11.9502 0.840248C11.8555 0.746827 11.7269 0.694336 11.5929 0.694336C11.4589 0.694336 11.3303 0.746827 11.2356 0.840248C11.1408 0.933669 11.0875 1.06037 11.0875 1.19248V1.90584H3.91146V1.19248C3.91146 1.06037 3.85822 0.933669 3.76345 0.840248C3.66868 0.746827 3.54014 0.694336 3.40611 0.694336C3.27208 0.694336 3.14354 0.746827 3.04877 0.840248C2.954 0.933669 2.90075 1.06037 2.90075 1.19248V1.90584H1.415C1.04059 1.90584 0.681447 2.05212 0.416228 2.31262C0.151009 2.57312 0.00133717 2.92663 0 3.29569V4.54602H14.996V3.29569C14.9936 2.92801 14.844 2.57613 14.5798 2.3166C14.3155 2.05707 13.958 1.91086 13.585 1.90982Z" fill="#030303"/>
<path d="M0 14.2869C0.00133717 14.656 0.151009 15.0095 0.416228 15.27C0.681447 15.5305 1.04059 15.6768 1.415 15.6768H13.585C13.9594 15.6768 14.3186 15.5305 14.5838 15.27C14.849 15.0095 14.9987 14.656 15 14.2869V5.61914H0V14.2869ZM7.075 12.5484C7.11993 12.0794 7.26002 11.6242 7.48695 11.2097C7.71388 10.7951 8.02302 10.4298 8.396 10.1354C9.09541 9.41204 9.27835 9.18787 9.27835 8.62397C9.27835 8.19556 9.16616 7.86081 8.67192 7.86081C8.17769 7.86081 8.02709 8.21748 8.00384 8.78736H7.11138C7.08791 8.57432 7.11245 8.3588 7.18324 8.15619C7.25404 7.95358 7.36934 7.76887 7.52092 7.61526C7.6725 7.46166 7.85662 7.34294 8.06013 7.26759C8.26364 7.19223 8.48151 7.16208 8.6982 7.17932C8.90216 7.15124 9.10993 7.16956 9.30559 7.23287C9.50126 7.29617 9.67963 7.40279 9.82704 7.54454C9.97446 7.68629 10.087 7.85941 10.156 8.05066C10.2251 8.24191 10.2488 8.44618 10.2254 8.64787C10.2254 9.31638 10.0232 9.67109 9.26016 10.4074C8.78529 10.8107 8.40375 11.3098 8.1413 11.8709H10.382L10.2567 12.5992H7.075V12.5484ZM4.67657 7.65357C5.047 7.60239 5.39635 7.45294 5.68728 7.22119H6.30281V12.6012H5.38104V8.21749C5.14897 8.27077 4.91179 8.29949 4.67354 8.30317L4.67657 7.65357Z" fill="#030303"/>
</svg>
