<svg width="15" height="16" viewBox="0 0 15 16" fill="none" xmlns="http://www.w3.org/2000/svg">
<path d="M7.50171 0.737305C6.01828 0.736966 4.56807 1.17603 3.33447 1.99896C2.10088 2.8219 1.13931 3.99175 0.571386 5.36056C0.00346539 6.72936 -0.145286 8.23562 0.143909 9.68888C0.433104 11.1421 1.14726 12.4771 2.19609 13.5249C3.24491 14.5728 4.5813 15.2864 6.0362 15.5756C7.4911 15.8648 8.99918 15.7165 10.3697 15.1496C11.7403 14.5827 12.9117 13.6225 13.7359 12.3905C14.5601 11.1586 15 9.71018 15 8.22849C15.0001 7.24485 14.8063 6.2708 14.4295 5.36199C14.0527 4.45318 13.5004 3.6274 12.8042 2.93178C12.1079 2.23617 11.2812 1.68434 10.3714 1.30782C9.46164 0.931288 8.48651 0.737417 7.50171 0.737305ZM10.4061 10.7444C10.3701 10.795 10.3245 10.838 10.2718 10.8709C10.2192 10.9038 10.1605 10.926 10.0992 10.9362C10.038 10.9464 9.97529 10.9444 9.9148 10.9303C9.8543 10.9163 9.79717 10.8904 9.74672 10.8542L6.966 8.87076V4.66899C6.9761 4.55085 7.03021 4.44078 7.11765 4.36059C7.20509 4.28039 7.31947 4.23589 7.43818 4.23589C7.55689 4.23589 7.67127 4.28039 7.75871 4.36059C7.84614 4.44078 7.90028 4.55085 7.91038 4.66899V8.3854L10.2919 10.0867C10.3428 10.1223 10.3861 10.1676 10.4194 10.2199C10.4527 10.2723 10.4753 10.3307 10.4859 10.3919C10.4965 10.453 10.4949 10.5156 10.4812 10.5761C10.4675 10.6366 10.442 10.6938 10.4061 10.7444Z" fill="#030303"/>
</svg>
