<svg width="17" height="18" viewBox="0 0 17 18" fill="none" xmlns="http://www.w3.org/2000/svg">
<path d="M8.49027 0.331057C6.80951 0.332979 5.16704 0.832575 3.77048 1.76668C2.37392 2.70078 1.28597 4.02745 0.644144 5.57902C0.00231959 7.13059 -0.164562 8.83737 0.164589 10.4837C0.493741 12.1299 1.30415 13.6418 2.49338 14.8282C3.68261 16.0145 5.19728 16.822 6.84591 17.1487C8.49455 17.4754 10.2031 17.3066 11.7557 16.6636C13.3083 16.0205 14.6352 14.9322 15.5686 13.5361C16.5021 12.14 17.0002 10.4989 17 8.82008C16.9994 7.70457 16.7787 6.60008 16.3507 5.56974C15.9227 4.53939 15.2957 3.60336 14.5055 2.81507C13.7153 2.02677 12.7773 1.40169 11.7452 0.975484C10.7131 0.549274 9.6071 0.330291 8.49027 0.331057ZM8.80653 12.0334L4.1201 7.10653H13.493L8.80653 12.0334Z" fill="#030303"/>
</svg>
