<svg width="54" height="33" viewBox="0 0 54 33" fill="none" xmlns="http://www.w3.org/2000/svg">
<path fill-rule="evenodd" clip-rule="evenodd" d="M26.8037 28.6037C29.7135 31.2793 33.5256 32.7618 37.4807 32.7557C41.7103 32.7224 45.7553 31.0207 48.7344 28.0216C51.7134 25.0224 53.3851 20.9689 53.3851 16.7441C53.3851 12.5193 51.7134 8.46573 48.7344 5.46659C45.7553 2.46744 41.7103 0.765812 37.4807 0.732445C33.5259 0.725726 29.7137 2.20751 26.8037 4.88256C25.1484 6.3845 23.8257 8.21557 22.9206 10.2582C22.0154 12.3008 21.5479 14.5098 21.5479 16.7436C21.5479 18.9773 22.0154 21.1864 22.9206 23.2291C23.8257 25.2717 25.1484 27.1027 26.8037 28.6046V28.6037Z" fill="#E99F2B"/>
<path fill-rule="evenodd" clip-rule="evenodd" d="M51.2955 25.6619C51.2952 25.5971 51.3078 25.5328 51.3325 25.4728C51.3572 25.4128 51.3936 25.3583 51.4396 25.3124C51.4855 25.2666 51.54 25.2303 51.6001 25.2056C51.6601 25.1809 51.7245 25.1682 51.7894 25.1685C51.8565 25.1654 51.9235 25.1759 51.9865 25.1992C52.0494 25.2226 52.107 25.2583 52.1558 25.3043C52.2046 25.3504 52.2436 25.4058 52.2705 25.4672C52.2975 25.5287 52.3117 25.5949 52.3124 25.6619C52.3148 25.7312 52.3029 25.8002 52.2775 25.8646C52.252 25.9291 52.2136 25.9876 52.1645 26.0366C52.1155 26.0855 52.0569 26.124 51.9924 26.1494C51.9278 26.1748 51.8588 26.1867 51.7894 26.1843C51.7223 26.1836 51.656 26.1693 51.5945 26.1425C51.533 26.1156 51.4775 26.0766 51.4314 26.0278C51.3853 25.9791 51.3495 25.9216 51.3262 25.8587C51.3028 25.7959 51.2924 25.7289 51.2955 25.6619ZM51.7894 26.0755C51.8982 26.0727 52.0017 26.0281 52.0784 25.9511C52.1551 25.8741 52.1992 25.7706 52.2015 25.6619C52.1975 25.5565 52.152 25.4568 52.0748 25.3848C51.9976 25.3127 51.895 25.2741 51.7894 25.2774C51.6881 25.2797 51.5915 25.3209 51.5198 25.3925C51.448 25.4642 51.4068 25.5607 51.4045 25.6619C51.4058 25.7663 51.446 25.8664 51.5171 25.9429C51.5883 26.0193 51.6853 26.0665 51.7894 26.0755ZM51.7344 25.9107H51.6254V25.4422H51.8164C51.8555 25.4378 51.8948 25.4473 51.9274 25.4692C51.9814 25.4961 51.9815 25.5251 51.9815 25.58C51.9815 25.6349 51.9545 25.6909 51.8995 25.6909L52.0104 25.9107H51.8724L51.8164 25.7178H51.7344V25.634H51.8424C51.8694 25.634 51.8695 25.607 51.8695 25.58C51.8695 25.553 51.8694 25.5531 51.8424 25.5261H51.7315L51.7344 25.9107Z" fill="#E99F2B"/>
<path fill-rule="evenodd" clip-rule="evenodd" d="M31.9498 15.0517C31.8938 14.4744 31.7848 13.9251 31.6738 13.3477H21.9328C22.0496 12.7813 22.1964 12.2215 22.3728 11.6707H31.2078C31.0151 11.0914 30.7948 10.5234 30.5468 9.9667H23.0618C23.3358 9.38406 23.6385 8.81606 23.9698 8.26271H29.6108C29.2492 7.67479 28.8448 7.11424 28.4008 6.58567H25.1788C25.677 5.97754 26.2198 5.40729 26.8028 4.87967C24.5034 2.79654 21.6479 1.42499 18.5832 0.931584C15.5184 0.438177 12.3761 0.844152 9.53788 2.10016C6.69963 3.35617 4.2875 5.40818 2.59439 8.00709C0.901283 10.606 0 13.64 0 16.7407C0 19.8414 0.901283 22.8754 2.59439 25.4743C4.2875 28.0733 6.69963 30.1253 9.53788 31.3813C12.3761 32.6373 15.5184 33.0432 18.5832 32.5498C21.6479 32.0564 24.5034 30.6849 26.8028 28.6018C27.3777 28.0839 27.9126 27.5233 28.4028 26.9247H25.1788C24.7448 26.3791 24.3409 25.8103 23.9688 25.2207H29.6098C29.9649 24.6774 30.2778 24.1078 30.5458 23.5167H23.0608C22.802 22.9695 22.572 22.409 22.3718 21.8378H31.2068C31.3914 21.2781 31.5473 20.7093 31.6738 20.1338C31.9165 19.0236 32.0366 17.8901 32.0318 16.7537C32.0318 16.1764 32.0048 15.5991 31.9498 15.0497V15.0517Z" fill="#BF0C24"/>
<path fill-rule="evenodd" clip-rule="evenodd" d="M51.2954 20.466C51.2925 20.3992 51.3032 20.3325 51.3267 20.2698C51.3502 20.2072 51.386 20.1499 51.4321 20.1014C51.4782 20.0529 51.5335 20.0141 51.5949 19.9873C51.6563 19.9606 51.7224 19.9464 51.7894 19.9456C51.8585 19.9431 51.9275 19.9549 51.992 19.9801C52.0564 20.0054 52.115 20.0436 52.164 20.0924C52.2131 20.1412 52.2516 20.1995 52.2771 20.2638C52.3026 20.3281 52.3146 20.3969 52.3124 20.466C52.3125 20.5347 52.299 20.6027 52.2728 20.6661C52.2466 20.7296 52.2081 20.7872 52.1595 20.8357C52.1109 20.8843 52.0532 20.9227 51.9897 20.9489C51.9262 20.9751 51.8581 20.9886 51.7894 20.9884C51.6551 20.9827 51.5285 20.925 51.4362 20.8274C51.344 20.7299 51.2934 20.6002 51.2954 20.466ZM51.7894 20.8506C51.8422 20.8544 51.8954 20.8473 51.9454 20.8297C51.9954 20.8121 52.0412 20.7844 52.0801 20.7483C52.1189 20.7122 52.1499 20.6685 52.171 20.62C52.1922 20.5714 52.2031 20.519 52.2031 20.466C52.2031 20.4131 52.1922 20.3607 52.171 20.3121C52.1499 20.2635 52.1189 20.2198 52.0801 20.1838C52.0412 20.1477 51.9954 20.12 51.9454 20.1024C51.8954 20.0848 51.8422 20.0777 51.7894 20.0815C51.6872 20.0815 51.5893 20.122 51.5171 20.1941C51.4449 20.2662 51.4044 20.364 51.4044 20.466C51.4044 20.568 51.4449 20.6658 51.5171 20.7379C51.5893 20.81 51.6872 20.8506 51.7894 20.8506ZM51.7344 20.6858H51.6253V20.2463H51.9254C51.9794 20.2733 51.9794 20.3302 51.9794 20.3842C51.9754 20.4078 51.9659 20.4301 51.9517 20.4494C51.9374 20.4687 51.9188 20.4843 51.8974 20.495L52.0083 20.6878H51.8704L51.8143 20.523H51.7324V20.4391H51.7874C51.8144 20.4391 51.8434 20.439 51.8434 20.4121C51.8704 20.4121 51.8704 20.3851 51.8704 20.3571C51.8704 20.35 51.8675 20.3431 51.8624 20.3381C51.8574 20.333 51.8505 20.3302 51.8434 20.3302C51.8434 20.3012 51.8144 20.3302 51.7874 20.3302H51.7324L51.7344 20.6858Z" fill="white"/>
<path fill-rule="evenodd" clip-rule="evenodd" d="M21.3817 21.3714C20.9617 21.5005 20.5267 21.5744 20.0877 21.5912C19.2607 21.5912 18.7666 21.0708 18.7666 20.1339C18.7726 19.9332 18.7907 19.7331 18.8207 19.5346L18.9317 18.9033L19.0137 18.3809L19.7567 13.8732H21.4077L21.2146 14.8621H22.2617L22.0126 16.5111H20.9667L20.5267 19.208C20.5078 19.298 20.4987 19.3897 20.4996 19.4816C20.4996 19.8392 20.6646 19.981 21.0776 19.981C21.2533 19.9783 21.4284 19.9595 21.6007 19.9251L21.3817 21.3714ZM26.7207 21.3175C26.1474 21.4801 25.5545 21.5631 24.9587 21.5642C24.5604 21.6127 24.1564 21.5701 23.7771 21.4395C23.3978 21.309 23.0532 21.094 22.7695 20.8108C22.4857 20.5275 22.2702 20.1835 22.1392 19.8047C22.0083 19.426 21.9653 19.0224 22.0137 18.6246C22.0137 16.3423 23.2797 14.6923 25.0407 14.6923C25.356 14.6748 25.6714 14.7254 25.9654 14.8405C26.2595 14.9556 26.5253 15.1326 26.7447 15.3595C26.9641 15.5863 27.1321 15.8577 27.2372 16.1552C27.3423 16.4527 27.382 16.7693 27.3537 17.0835C27.3473 17.6295 27.2826 18.1733 27.1607 18.7056H23.7196C23.7002 18.7772 23.6911 18.8511 23.6927 18.9253C23.6927 19.6944 24.2157 20.079 25.2057 20.079C25.8254 20.0776 26.4368 19.9369 26.9947 19.6674L26.7207 21.3175ZM25.7017 17.3871V17.0565C25.7159 16.9436 25.7046 16.8289 25.6686 16.721C25.6326 16.613 25.5728 16.5145 25.4937 16.4327C25.4145 16.3508 25.318 16.2877 25.2112 16.2481C25.1044 16.2084 24.9901 16.1932 24.8767 16.2035C24.3267 16.2035 23.9407 16.615 23.7767 17.3871H25.7017ZM8.17264 21.4553H6.46463L7.45664 15.2146L5.22763 21.4553H4.04465L3.90665 15.2426L2.86066 21.4553H1.18164L2.52963 13.3458H5.03464L5.08866 18.3489L6.76764 13.3458H9.51966L8.17264 21.4553ZM12.3276 18.5138C12.2185 18.4933 12.1076 18.4843 11.9966 18.4868C11.0066 18.4868 10.5107 18.8714 10.5107 19.4757C10.5016 19.5636 10.5113 19.6524 10.5392 19.7362C10.5671 19.8201 10.6125 19.8971 10.6725 19.9621C10.7324 20.0271 10.8055 20.0785 10.8869 20.1132C10.9683 20.1478 11.0562 20.1647 11.1447 20.1628C11.9697 20.1658 12.2996 19.4737 12.3276 18.5158V18.5138ZM13.7047 21.4553H12.2187L12.2456 20.7671C12.0375 21.0456 11.7608 21.2655 11.4424 21.4055C11.1241 21.5455 10.7748 21.6009 10.4287 21.5662C10.2074 21.5502 9.99148 21.4904 9.79364 21.3901C9.59581 21.2898 9.42 21.1511 9.27649 20.9821C9.13299 20.8131 9.02469 20.6172 8.95792 20.4058C8.89115 20.1945 8.86725 19.972 8.88764 19.7513C8.89091 19.4625 8.93676 19.1758 9.02366 18.9003C9.29966 17.8825 10.3167 17.2513 11.8867 17.2233C12.0797 17.2233 12.3807 17.2233 12.6567 17.2502C12.6972 17.1074 12.7157 16.9592 12.7116 16.8108C12.7116 16.3693 12.3536 16.2314 11.5566 16.2314C11.0706 16.229 10.5872 16.3039 10.1246 16.4532L9.87766 16.5081L9.76664 16.5351L10.0157 15.0508C10.6622 14.8263 11.3403 14.7056 12.0247 14.6933C13.5087 14.6933 14.3087 15.3815 14.3087 16.646C14.3258 17.0782 14.2976 17.511 14.2246 17.9374L13.8396 20.2996L13.7857 20.7132L13.7586 21.0438L13.7317 21.2635L13.7047 21.4553ZM35.0307 14.912C35.5731 14.9306 36.1027 15.0822 36.5727 15.3535L36.8727 13.5935C36.7292 13.5305 36.5823 13.4755 36.4327 13.4287L35.7437 13.236C34.8482 13.0695 33.9239 13.1556 33.0747 13.4847C32.6979 13.7314 32.3553 14.0266 32.0557 14.3626L31.8357 14.3077L30.0757 15.5453L30.1577 14.8571H28.3407L27.2687 21.4493H29.0017L29.6337 17.9055C29.6337 17.9055 29.8827 17.4061 29.9917 17.2452C30.0984 17.0944 30.2449 16.9761 30.4149 16.9035C30.5849 16.8308 30.7718 16.8067 30.9547 16.8337H31.0927C31.0352 17.2521 31.0078 17.674 31.0107 18.0962C31.0107 20.2407 32.2207 21.5921 34.0917 21.5921C34.6044 21.589 35.1142 21.515 35.6067 21.3724L35.9067 19.5036C35.4648 19.7696 34.9631 19.9207 34.4477 19.9431C33.4307 19.9431 32.8257 19.174 32.8257 17.9654C32.8287 16.1775 33.7367 14.914 35.0307 14.914V14.912ZM49.6447 13.3458L49.2597 15.6541C49.1065 15.3716 48.8798 15.1357 48.6034 14.9713C48.327 14.8069 48.0113 14.7201 47.6897 14.7202C47.2059 14.7348 46.7357 14.884 46.3322 15.151C45.9287 15.418 45.6078 15.7921 45.4057 16.2314V16.2045L44.3057 15.5463L44.4167 14.858H42.5727L41.5267 21.4563H43.2327L43.8107 17.9105C43.8107 17.9105 44.2527 17.4111 44.3607 17.2502C44.4531 17.1317 44.5693 17.0338 44.702 16.9629C44.8346 16.892 44.9806 16.8497 45.1307 16.8387C44.9234 17.468 44.8221 18.1271 44.8307 18.7895C44.8307 20.4385 45.6827 21.5382 46.9487 21.5382C47.2544 21.545 47.5576 21.4815 47.835 21.3529C48.1124 21.2242 48.3565 21.0337 48.5487 20.7961L48.4647 21.4563H50.0887L51.4097 13.3468L49.6447 13.3458ZM47.5247 19.8872C46.9467 19.8872 46.6457 19.4477 46.6457 18.5957C46.6457 17.3032 47.1957 16.3693 47.9937 16.3693C48.5937 16.3693 48.9017 16.8377 48.9017 17.6608C48.9007 18.9822 48.3507 19.8902 47.5237 19.8902L47.5247 19.8872ZM39.5727 18.5138C39.4636 18.4933 39.3526 18.4843 39.2417 18.4868C38.2497 18.4868 37.7557 18.8714 37.7557 19.4757C37.7464 19.5634 37.756 19.6521 37.7837 19.7359C37.8114 19.8197 37.8567 19.8967 37.9165 19.9617C37.9762 20.0267 38.0492 20.0782 38.1304 20.1129C38.2116 20.1475 38.2993 20.1646 38.3877 20.1628C39.2147 20.1658 39.5447 19.4737 39.5727 18.5158V18.5138ZM40.9477 21.4553H39.4347L39.4927 20.7721C39.2849 21.0504 39.0085 21.2703 38.6905 21.4103C38.3724 21.5503 38.0235 21.6057 37.6777 21.5712C37.4516 21.5619 37.2298 21.5069 37.0255 21.4097C36.8213 21.3124 36.639 21.1748 36.4894 21.0052C36.3399 20.8356 36.2263 20.6375 36.1556 20.4229C36.0848 20.2082 36.0583 19.9814 36.0777 19.7563C36.0777 18.1901 37.2607 17.2283 39.1317 17.2283C39.3796 17.2247 39.6276 17.2336 39.8747 17.2552C39.9226 17.1133 39.9509 16.9654 39.9587 16.8158C39.9587 16.3743 39.6007 16.2384 38.7757 16.2384C38.2898 16.2375 37.8068 16.3116 37.3437 16.4582L37.1237 16.5131L37.0127 16.5401L37.2597 15.0558C37.9063 14.8316 38.5843 14.711 39.2687 14.6983C40.7547 14.6983 41.5247 15.3865 41.5247 16.651C41.5572 17.0832 41.5296 17.5178 41.4427 17.9424L41.0847 20.3067L41.0307 20.7182L40.9747 21.0488L40.9477 21.2685V21.4613V21.4553ZM17.3087 16.2614C17.7419 16.2637 18.1742 16.3001 18.6017 16.3703L18.8486 14.8311C18.3546 14.7772 17.6937 14.6933 17.3077 14.6933C15.3817 14.6933 14.7477 15.739 14.7477 16.9466C14.7411 17.3474 14.8632 17.7399 15.096 18.0664C15.3289 18.393 15.6603 18.6366 16.0417 18.7615C16.7307 19.0921 16.8417 19.146 16.8417 19.4497C16.8417 19.8612 16.4857 20.1079 15.8247 20.1079C15.2894 20.1085 14.7581 20.0158 14.2546 19.8342L14.0617 21.3454L14.0887 21.3724L14.4197 21.4273C14.5655 21.4629 14.713 21.4908 14.8616 21.5112C15.2736 21.5382 15.6317 21.5652 15.8517 21.5652C17.7777 21.5652 18.5767 20.823 18.5767 19.3678C18.5888 18.9626 18.4693 18.5645 18.236 18.2329C18.0028 17.9012 17.6683 17.6539 17.2827 17.5279C16.5397 17.1973 16.4557 17.1434 16.4557 16.8397C16.4557 16.5361 16.7857 16.2624 17.3087 16.2624V16.2614Z" fill="#082C5C"/>
<path fill-rule="evenodd" clip-rule="evenodd" d="M37.3481 13.0722L37.0481 14.8321C36.5784 14.5614 36.0492 14.4104 35.5071 14.3926C34.2131 14.3926 33.3071 15.6552 33.3071 17.443C33.3071 18.6806 33.9072 19.4227 34.9312 19.4227C35.4417 19.3972 35.9398 19.2565 36.3882 19.0112L36.0881 20.851C35.5972 21.0012 35.0883 21.0848 34.5751 21.0997C32.7041 21.0997 31.5461 19.7513 31.5461 17.5809C31.5461 14.6933 33.1461 12.6597 35.4261 12.6597C35.6952 12.655 35.9639 12.6831 36.2261 12.7436L36.9151 12.9084C37.1371 12.9903 37.1911 13.0173 37.3571 13.0712L37.3481 13.0722ZM31.7891 14.2828H31.6241C31.0461 14.2828 30.7161 14.5584 30.1921 15.3555L30.3571 14.3377H28.7871L27.7151 20.9359H29.4482C30.0822 16.8947 30.2481 16.2075 31.0721 16.2075H31.1831C31.3097 15.5464 31.5317 14.9071 31.8421 14.3097L31.7891 14.2828ZM21.8261 20.851C21.4302 20.9976 21.0114 21.0726 20.5891 21.0727C20.3967 21.0905 20.2026 21.0643 20.0218 20.9961C19.8409 20.9279 19.678 20.8194 19.5453 20.679C19.4126 20.5386 19.3137 20.3699 19.256 20.1857C19.1982 20.0014 19.1832 19.8064 19.2121 19.6155C19.2182 19.4221 19.2366 19.2292 19.2672 19.0381L19.3781 18.3779L19.4621 17.8575L20.2031 13.3478H21.9111L21.7181 14.3367H22.5971L22.3771 15.9588H21.4961L21.0291 18.7075C21.008 18.7978 20.9989 18.8905 21.0021 18.9832C21.0021 19.3118 21.1671 19.4496 21.5801 19.4496C21.7379 19.4637 21.8969 19.445 22.0471 19.3947L21.8271 20.85L21.8261 20.851ZM15.1951 16.4272C15.19 16.8307 15.3119 17.2257 15.5438 17.5562C15.7756 17.8867 16.1057 18.1361 16.4872 18.269C17.2032 18.5976 17.3141 18.7085 17.3141 18.9822C17.3141 19.3957 17.0141 19.5885 16.3221 19.5885C15.7988 19.5844 15.2791 19.5005 14.7811 19.3398L14.5341 20.851L14.6161 20.88L14.9161 20.9349C15.0688 20.9732 15.2258 20.9913 15.3831 20.9888C15.6933 21.031 16.0062 21.0497 16.3192 21.0447C18.1362 21.0447 18.9901 20.3566 18.9901 18.8474C19.0163 18.4505 18.9121 18.0559 18.6933 17.7235C18.4746 17.3911 18.1533 17.139 17.7781 17.0055C17.0351 16.6749 16.9531 16.5941 16.9531 16.2904C16.9531 15.9328 17.2531 15.768 17.8071 15.768C18.2208 15.7715 18.6338 15.7995 19.0441 15.8519L19.2932 14.3407C18.7925 14.2558 18.2859 14.2097 17.7781 14.2028C15.8481 14.2018 15.1621 15.2177 15.1911 16.4282L15.1951 16.4272ZM50.5302 20.9349H48.9061L48.9881 20.3017C48.7913 20.5307 48.5463 20.7135 48.2706 20.8371C47.9949 20.9607 47.6953 21.0221 47.3931 21.0168C46.1271 21.0168 45.3001 19.9461 45.3001 18.297C45.3001 16.0996 46.5931 14.2288 48.1071 14.2288C48.4365 14.2305 48.7602 14.3143 49.0489 14.4727C49.3376 14.6311 49.582 14.859 49.7601 15.1358L50.1451 12.8254H51.8481L50.5271 20.9349H50.5302ZM47.9971 19.3957C48.7971 19.3957 49.3451 18.4608 49.3451 17.1693C49.3451 16.3163 49.0451 15.8709 48.4371 15.8709C47.6671 15.8709 47.0891 16.7778 47.0891 18.0683C47.0865 18.9532 47.3881 19.3961 47.9941 19.3967L47.9971 19.3957ZM27.1101 20.7941C26.5325 20.9811 25.9284 21.0742 25.3211 21.0697C23.3931 21.0697 22.4031 20.052 22.4031 18.1013C22.4031 15.8459 23.6691 14.1689 25.4031 14.1689C25.7202 14.1494 26.0377 14.1984 26.3341 14.3124C26.6305 14.4264 26.8988 14.6029 27.1208 14.8297C27.3429 15.0566 27.5134 15.3286 27.6208 15.6272C27.7281 15.9258 27.7699 16.2439 27.7431 16.56C27.7384 17.1167 27.6645 17.6706 27.5231 18.2091H24.1091C24.0887 18.2712 24.0795 18.3365 24.0822 18.4019C24.0822 19.173 24.6051 19.5575 25.5951 19.5575C26.2164 19.5688 26.8309 19.4268 27.3841 19.144L27.1101 20.7941ZM26.1451 16.8637V16.5361C26.1594 16.4233 26.1481 16.3087 26.1121 16.2008C26.0761 16.0929 26.0163 15.9945 25.9371 15.9128C25.8579 15.8311 25.7614 15.7682 25.6546 15.7288C25.5478 15.6894 25.4335 15.6745 25.3201 15.6851C24.7701 15.6851 24.3841 16.0966 24.2201 16.8667L26.1451 16.8637ZM8.61313 20.9309H6.90714L7.89713 14.6902L5.66815 20.9309H4.48514L4.34714 14.7472L3.30212 20.9309H1.70215L3.05014 12.8215H5.52814L5.61014 17.8516L7.26114 12.8215H9.96115L8.61313 20.9309ZM12.8792 17.9894C12.7142 17.9894 12.6321 17.9624 12.4941 17.9624C11.5311 17.9624 11.0351 18.32 11.0351 18.9782C11.0231 19.0625 11.0299 19.1484 11.0549 19.2297C11.08 19.3111 11.1226 19.386 11.1799 19.449C11.2372 19.5121 11.3077 19.5618 11.3864 19.5945C11.4651 19.6272 11.55 19.6422 11.6351 19.6384C12.3561 19.6434 12.8482 18.9822 12.8792 17.9934V17.9894ZM14.1481 20.9309H12.7161L12.7431 20.2427C12.5273 20.5124 12.2493 20.7259 11.9329 20.8651C11.6165 21.0042 11.2711 21.0648 10.9261 21.0418C10.7018 21.0388 10.4806 20.9888 10.2769 20.895C10.0732 20.8012 9.89154 20.6657 9.74368 20.4972C9.59582 20.3287 9.48509 20.131 9.41867 19.917C9.35225 19.703 9.33161 19.4774 9.35812 19.2549C9.35812 17.6328 10.4581 16.6979 12.3851 16.6979C12.5781 16.6979 12.8271 16.7248 13.1011 16.7528C13.1395 16.6191 13.1577 16.4804 13.1552 16.3413C13.1552 15.9018 12.8551 15.742 12.0551 15.742C11.5734 15.7357 11.0928 15.7911 10.6252 15.9068L10.3761 15.9888L10.2112 16.0177L10.4601 14.5335C11.1272 14.3188 11.8233 14.2073 12.5241 14.2028C14.0101 14.2028 14.8081 14.8611 14.8081 16.1266C14.7978 16.5694 14.7516 17.0106 14.6701 17.446L14.2851 19.7832L14.2301 20.1948L14.2031 20.5254L14.1761 20.7721L14.1491 20.9369L14.1481 20.9309ZM40.1271 17.9894C39.9341 17.9894 39.8511 17.9624 39.7421 17.9624C38.7501 17.9624 38.2542 18.32 38.2542 18.9782C38.2451 19.0648 38.2551 19.1523 38.2834 19.2347C38.3116 19.317 38.3576 19.3923 38.4179 19.4551C38.4783 19.518 38.5516 19.5669 38.6328 19.5986C38.714 19.6302 38.8011 19.6438 38.8882 19.6384C39.5772 19.6384 40.0981 18.9782 40.1271 17.9894ZM41.3931 20.9309H39.9612L39.9881 20.2427C39.7721 20.5123 39.4941 20.7257 39.1778 20.8648C38.8614 21.004 38.5161 21.0647 38.1711 21.0418C37.9468 21.0388 37.7257 20.9888 37.5219 20.895C37.3182 20.8012 37.1365 20.6657 36.9887 20.4972C36.8408 20.3287 36.7301 20.131 36.6637 19.917C36.5972 19.703 36.5766 19.4774 36.6031 19.2549C36.6031 17.6328 37.7031 16.6979 39.6301 16.6979C39.8231 16.6979 40.0702 16.7248 40.3192 16.7528C40.3629 16.6194 40.3904 16.4813 40.4012 16.3413C40.4012 15.9018 40.1011 15.742 39.3011 15.742C38.8105 15.7358 38.321 15.7912 37.8441 15.9068L37.6221 15.9888L37.4572 16.0177L37.7061 14.5335C38.3732 14.3188 39.0693 14.2073 39.7701 14.2028C41.2561 14.2028 42.0262 14.8611 42.0262 16.1266C42.0301 16.5702 41.9838 17.0128 41.8882 17.446L41.5302 19.7832L41.4761 20.1948L41.4211 20.5254L41.3941 20.7721V20.9369L41.3931 20.9309ZM46.0151 14.2787H45.8481C45.2721 14.2787 44.9422 14.5545 44.4182 15.3515L44.5831 14.3337H43.0132L41.9671 20.9319H43.6751C44.3071 16.8907 44.4751 16.2035 45.2991 16.2035H45.4081C45.5345 15.542 45.7572 14.9027 46.0692 14.3058L46.0151 14.2787Z" fill="white"/>
</svg>
