<?xml version="1.0" encoding="UTF-8" standalone="no"?>
<svg
   width="38"
   height="30"
   viewBox="0 0 38 30"
   fill="none"
   version="1.1"
   id="svg31"
   sodipodi:docname="mute.svg"
   inkscape:version="1.1 (c68e22c387, 2021-05-23)"
   xmlns:inkscape="http://www.inkscape.org/namespaces/inkscape"
   xmlns:sodipodi="http://sodipodi.sourceforge.net/DTD/sodipodi-0.dtd"
   xmlns="http://www.w3.org/2000/svg"
   xmlns:svg="http://www.w3.org/2000/svg">
  <defs
     id="defs35" />
  <sodipodi:namedview
     id="namedview33"
     pagecolor="#ffffff"
     bordercolor="#666666"
     borderopacity="1.0"
     inkscape:pageshadow="2"
     inkscape:pageopacity="0.0"
     inkscape:pagecheckerboard="0"
     showgrid="false"
     inkscape:zoom="20.966667"
     inkscape:cx="19.006359"
     inkscape:cy="15"
     inkscape:window-width="1600"
     inkscape:window-height="837"
     inkscape:window-x="-8"
     inkscape:window-y="-8"
     inkscape:window-maximized="1"
     inkscape:current-layer="svg31" />
  <path
     d="M17.86 0L3.63 10.42V19.07L17.86 29.49C17.83 7.26 17.86 18.17 17.86 0Z"
     fill="#B3B3B3"
     id="path23" />
  <path
     d="M0 21.9198H7.47V7.55981H0V21.9198Z"
     fill="#B3B3B3"
     id="path25" />
  <g
     id="g323"
     transform="matrix(0.95610631,0,0,0.95610631,1.741525,0.11678779)">
    <path
       d="m 33.15,8.74 -4.7,4.71 -4.71,-4.71 -1.84,1.85 4.7,4.71 -4.7,4.71 1.84,1.85 4.71,-4.71 4.7,4.71 L 35,20.01 30.3,15.3 35,10.59 v 0 z"
       id="use317"
       style="fill:#b3b3b3;fill-opacity:1" />
    <g
       id="g321">
      <path
         d="m 33.15,8.74 -4.7,4.71 -4.71,-4.71 -1.84,1.85 4.7,4.71 -4.7,4.71 1.84,1.85 4.71,-4.71 4.7,4.71 L 35,20.01 30.3,15.3 35,10.59 v 0 z"
         id="use319"
         style="fill-opacity:0;stroke:#000000;stroke-width:1;stroke-opacity:0" />
    </g>
  </g>
</svg>
