<?xml version="1.0" standalone="no"?>
<!DOCTYPE svg PUBLIC "-//W3C//DTD SVG 1.0//EN" "http://www.w3.org/TR/2001/REC-SVG-20010904/DTD/svg10.dtd">
<svg xmlns="http://www.w3.org/2000/svg" xmlns:xlink="http://www.w3.org/1999/xlink" id="body_1" width="445" height="445">

<defs>
    <clipPath  id="1">

    <path id=""  clip-rule="evenodd" transform="matrix(1 0 0 1 0 0)"  d="M334.6875 -0.6875L334.6875 334L334.6875 334L0 334L0 334L0 -0.6875L0 -0.6875L334.6875 -0.6875z" />    </clipPath>
</defs>

<g transform="matrix(1.3333 0 0 1.3333 0 0)">
	<g clip-path="url(#1)" >
    <path id=""  transform="matrix(1 0 0 -1 0 334)"  d="M162.5625 167.34375L162.5625 167.34375L162.5625 167.34375L0 282.09375L0 282.09375L0 282.09375L0 282.09375L0 52.59375L0 52.59375L162.5625 167.34375zM172.125 282.09375L172.125 282.09375L172.125 282.09375L172.125 282.09375L172.125 282.09375L172.125 52.59375L172.125 52.59375L334.6875 167.34375L334.6875 167.34375L172.125 282.09375z" stroke="#FFFFFF" stroke-width="1" fill="#fff" fill-rule="nonzero" />
	</g>
</g>
</svg>
