<svg width="55" height="18" viewBox="0 0 55 18" fill="none" xmlns="http://www.w3.org/2000/svg">
<path d="M10.4473 9.17615L8.93656 1.93727C8.82708 1.51758 8.56961 1.15147 8.21147 0.906247C7.85334 0.66102 7.41862 0.553173 6.98723 0.602514H0.0610828L0 0.933253C5.39466 2.23948 8.96316 5.39134 10.4473 9.17615Z" fill="#F68A0A"/>
<path d="M26.4976 0.748047H22.0224L19.2275 17.1325H23.6958L26.4976 0.748047Z" fill="#004A89"/>
<path d="M13.175 17.1166L20.2135 0.759766H15.4772L11.0986 11.934L10.6304 10.2469C9.21007 7.47166 7.07215 5.12659 4.43848 3.4549L8.44062 17.1195L13.175 17.1166Z" fill="#004A89"/>
<path d="M39.2633 11.7762C39.2791 9.91483 38.0807 8.49639 35.5066 7.32502C33.9406 6.56904 32.9856 6.06308 32.9974 5.29529C32.9974 4.61707 33.8066 3.88768 35.5598 3.88768C36.7063 3.86213 37.8456 4.07603 38.9046 4.51569L39.3087 4.70173L39.9167 1.15219C38.6307 0.690381 37.2732 0.459115 35.9067 0.469057C31.4896 0.469057 28.3794 2.68777 28.3498 5.87409C28.3232 8.22963 30.5731 9.54078 32.2702 10.3253C34.0106 11.1256 34.593 11.6384 34.5821 12.355C34.5703 13.4545 33.1965 13.9536 31.9104 13.9536C30.4583 13.9965 29.0161 13.702 27.6974 13.0933L27.1258 12.8314L26.4971 16.504C28.091 17.0912 29.778 17.3857 31.4768 17.3732C36.1728 17.3722 39.2278 15.1801 39.2633 11.7762Z" fill="#004A89"/>
<path d="M44.5794 14.6762L50.3052 14.6821C50.4412 15.2531 50.8492 17.1371 50.8492 17.1371H54.9991L51.3784 0.765496H47.9292C47.4438 0.702687 46.9513 0.801454 46.5278 1.04649C46.1043 1.29152 45.7735 1.66917 45.5866 2.12095L38.9463 17.1371H43.6452C43.6452 17.1371 44.405 15.1192 44.5794 14.6762ZM47.6443 6.74146C47.6217 6.78575 48.0139 5.79352 48.2357 5.17732L48.5382 6.58985C48.5382 6.58985 49.3916 10.5036 49.571 11.3206H45.8665C46.2351 10.3796 47.6404 6.74242 47.6404 6.74242L47.6443 6.74146Z" fill="#004A89"/>
</svg>
